<?xml version="1.0" encoding="UTF-8" standalone="no"?>
<svg width="300" height="300" viewBox="0 0 300 300" xmlns="http://www.w3.org/2000/svg">
  <rect width="300" height="300" fill="#f0f0f0"/>
  <circle cx="150" cy="120" r="50" fill="#e0e0e0"/>
  <path d="M150,180 C117,180 90,200 90,230 L210,230 C210,200 183,180 150,180 Z" fill="#e0e0e0"/>
  <path d="M150,120 C133,120 120,107 120,90 L120,80 C120,63 133,50 150,50 C167,50 180,63 180,80 L180,90 C180,107 167,120 150,120 Z" fill="#e0e0e0"/>
  <path d="M180,90 C180,107 167,120 150,120 C133,120 120,107 120,90 C120,90 130,100 150,100 C170,100 180,90 180,90 Z" fill="#d0d0d0"/>
  <path d="M130,160 C130,160 140,170 150,170 C160,170 170,160 170,160 C170,160 160,180 150,180 C140,180 130,160 130,160 Z" fill="#d0d0d0"/>
  <path d="M120,80 L120,90 C120,90 130,100 150,100 C170,100 180,90 180,90 L180,80 C180,80 170,85 150,85 C130,85 120,80 120,80 Z" fill="#d0d0d0"/>
  <path d="M150,120 L150,180" stroke="#d0d0d0" stroke-width="2"/>
  <path d="M110,230 C110,200 130,180 150,180 C170,180 190,200 190,230" stroke="#d0d0d0" stroke-width="2" fill="none"/>
  <path d="M150,50 C167,50 180,63 180,80 L180,90 C180,107 167,120 150,120 C133,120 120,107 120,90 L120,80 C120,63 133,50 150,50 Z" stroke="#d0d0d0" stroke-width="2" fill="none"/>
  <text x="150" y="260" font-family="Arial" font-size="16" text-anchor="middle" fill="#888">Female Placeholder</text>
</svg>
