<?xml version="1.0" encoding="UTF-8"?>
<svg width="240" height="160" viewBox="0 0 240 160" fill="none" xmlns="http://www.w3.org/2000/svg">
  <rect width="240" height="160" fill="#0052B4"/>
  <circle cx="120" cy="80" r="60" fill="#0052B4"/>
  <g>
    <path d="M120 20L125.8 37.7L144.3 37.7L129.3 48.5L135.1 66.2L120 55.4L104.9 66.2L110.7 48.5L95.7 37.7L114.2 37.7L120 20Z" fill="#FFDA44"/>
    <path d="M120 20L125.8 37.7L144.3 37.7L129.3 48.5L135.1 66.2L120 55.4L104.9 66.2L110.7 48.5L95.7 37.7L114.2 37.7L120 20Z" fill="#FFDA44" transform="rotate(30 120 80)"/>
    <path d="M120 20L125.8 37.7L144.3 37.7L129.3 48.5L135.1 66.2L120 55.4L104.9 66.2L110.7 48.5L95.7 37.7L114.2 37.7L120 20Z" fill="#FFDA44" transform="rotate(60 120 80)"/>
    <path d="M120 20L125.8 37.7L144.3 37.7L129.3 48.5L135.1 66.2L120 55.4L104.9 66.2L110.7 48.5L95.7 37.7L114.2 37.7L120 20Z" fill="#FFDA44" transform="rotate(90 120 80)"/>
    <path d="M120 20L125.8 37.7L144.3 37.7L129.3 48.5L135.1 66.2L120 55.4L104.9 66.2L110.7 48.5L95.7 37.7L114.2 37.7L120 20Z" fill="#FFDA44" transform="rotate(120 120 80)"/>
    <path d="M120 20L125.8 37.7L144.3 37.7L129.3 48.5L135.1 66.2L120 55.4L104.9 66.2L110.7 48.5L95.7 37.7L114.2 37.7L120 20Z" fill="#FFDA44" transform="rotate(150 120 80)"/>
    <path d="M120 20L125.8 37.7L144.3 37.7L129.3 48.5L135.1 66.2L120 55.4L104.9 66.2L110.7 48.5L95.7 37.7L114.2 37.7L120 20Z" fill="#FFDA44" transform="rotate(180 120 80)"/>
    <path d="M120 20L125.8 37.7L144.3 37.7L129.3 48.5L135.1 66.2L120 55.4L104.9 66.2L110.7 48.5L95.7 37.7L114.2 37.7L120 20Z" fill="#FFDA44" transform="rotate(210 120 80)"/>
    <path d="M120 20L125.8 37.7L144.3 37.7L129.3 48.5L135.1 66.2L120 55.4L104.9 66.2L110.7 48.5L95.7 37.7L114.2 37.7L120 20Z" fill="#FFDA44" transform="rotate(240 120 80)"/>
    <path d="M120 20L125.8 37.7L144.3 37.7L129.3 48.5L135.1 66.2L120 55.4L104.9 66.2L110.7 48.5L95.7 37.7L114.2 37.7L120 20Z" fill="#FFDA44" transform="rotate(270 120 80)"/>
    <path d="M120 20L125.8 37.7L144.3 37.7L129.3 48.5L135.1 66.2L120 55.4L104.9 66.2L110.7 48.5L95.7 37.7L114.2 37.7L120 20Z" fill="#FFDA44" transform="rotate(300 120 80)"/>
    <path d="M120 20L125.8 37.7L144.3 37.7L129.3 48.5L135.1 66.2L120 55.4L104.9 66.2L110.7 48.5L95.7 37.7L114.2 37.7L120 20Z" fill="#FFDA44" transform="rotate(330 120 80)"/>
  </g>
</svg>
